<?xml version="1.0" encoding="utf-8" standalone="no"?>
<!DOCTYPE svg PUBLIC "-//W3C//DTD SVG 1.1//EN"
  "http://www.w3.org/Graphics/SVG/1.1/DTD/svg11.dtd">
<svg xmlns:xlink="http://www.w3.org/1999/xlink" width="999.387138pt" height="423.99625pt" viewBox="0 0 999.387138 423.99625" xmlns="http://www.w3.org/2000/svg" version="1.1">
 <metadata>
  <rdf:RDF xmlns:dc="http://purl.org/dc/elements/1.1/" xmlns:cc="http://creativecommons.org/ns#" xmlns:rdf="http://www.w3.org/1999/02/22-rdf-syntax-ns#">
   <cc:Work>
    <dc:type rdf:resource="http://purl.org/dc/dcmitype/StillImage"/>
    <dc:date>2025-09-28T18:31:03.293381</dc:date>
    <dc:format>image/svg+xml</dc:format>
    <dc:creator>
     <cc:Agent>
      <dc:title>Matplotlib v3.10.6, https://matplotlib.org/</dc:title>
     </cc:Agent>
    </dc:creator>
   </cc:Work>
  </rdf:RDF>
 </metadata>
 <defs>
  <style type="text/css">*{stroke-linejoin: round; stroke-linecap: butt}</style>
 </defs>
 <g id="figure_1">
  <g id="patch_1">
   <path d="M 0 423.99625 
L 999.387138 423.99625 
L 999.387138 0 
L 0 0 
z
" style="fill: #ffffff"/>
  </g>
  <g id="axes_1">
   <g id="patch_2">
    <path d="M 46.965625 386.44 
L 989.407324 386.44 
L 989.407324 7.2 
L 46.965625 7.2 
z
" style="fill: #ffffff"/>
   </g>
   <g id="matplotlib.axis_1">
    <g id="xtick_1">
     <g id="line2d_1">
      <path d="M 80.785303 386.44 
L 80.785303 7.2 
" clip-path="url(#p427098e172)" style="fill: none; stroke: #b0b0b0; stroke-opacity: 0.3; stroke-width: 0.8; stroke-linecap: square"/>
     </g>
     <g id="line2d_2">
      <defs>
       <path id="m28eb50ad0b" d="M 0 0 
L 0 3.5 
" style="stroke: #000000; stroke-width: 0.8"/>
      </defs>
      <g>
       <use xlink:href="#m28eb50ad0b" x="80.785303" y="386.44" style="stroke: #000000; stroke-width: 0.8"/>
      </g>
     </g>
     <g id="text_1">
      <!-- 0 -->
      <g transform="translate(77.604053 401.038437) scale(0.1 -0.1)">
       <defs>
        <path id="DejaVuSans-30" d="M 2034 4250 
Q 1547 4250 1301 3770 
Q 1056 3291 1056 2328 
Q 1056 1369 1301 889 
Q 1547 409 2034 409 
Q 2525 409 2770 889 
Q 3016 1369 3016 2328 
Q 3016 3291 2770 3770 
Q 2525 4250 2034 4250 
z
M 2034 4750 
Q 2819 4750 3233 4129 
Q 3647 3509 3647 2328 
Q 3647 1150 3233 529 
Q 2819 -91 2034 -91 
Q 1250 -91 836 529 
Q 422 1150 422 2328 
Q 422 3509 836 4129 
Q 1250 4750 2034 4750 
z
" transform="scale(0.015625)"/>
       </defs>
       <use xlink:href="#DejaVuSans-30"/>
      </g>
     </g>
    </g>
    <g id="xtick_2">
     <g id="line2d_3">
      <path d="M 261.15692 386.44 
L 261.15692 7.2 
" clip-path="url(#p427098e172)" style="fill: none; stroke: #b0b0b0; stroke-opacity: 0.3; stroke-width: 0.8; stroke-linecap: square"/>
     </g>
     <g id="line2d_4">
      <g>
       <use xlink:href="#m28eb50ad0b" x="261.15692" y="386.44" style="stroke: #000000; stroke-width: 0.8"/>
      </g>
     </g>
     <g id="text_2">
      <!-- 20 -->
      <g transform="translate(254.79442 401.038437) scale(0.1 -0.1)">
       <defs>
        <path id="DejaVuSans-32" d="M 1228 531 
L 3431 531 
L 3431 0 
L 469 0 
L 469 531 
Q 828 903 1448 1529 
Q 2069 2156 2228 2338 
Q 2531 2678 2651 2914 
Q 2772 3150 2772 3378 
Q 2772 3750 2511 3984 
Q 2250 4219 1831 4219 
Q 1534 4219 1204 4116 
Q 875 4013 500 3803 
L 500 4441 
Q 881 4594 1212 4672 
Q 1544 4750 1819 4750 
Q 2544 4750 2975 4387 
Q 3406 4025 3406 3419 
Q 3406 3131 3298 2873 
Q 3191 2616 2906 2266 
Q 2828 2175 2409 1742 
Q 1991 1309 1228 531 
z
" transform="scale(0.015625)"/>
       </defs>
       <use xlink:href="#DejaVuSans-32"/>
       <use xlink:href="#DejaVuSans-30" transform="translate(63.623047 0)"/>
      </g>
     </g>
    </g>
    <g id="xtick_3">
     <g id="line2d_5">
      <path d="M 441.528537 386.44 
L 441.528537 7.2 
" clip-path="url(#p427098e172)" style="fill: none; stroke: #b0b0b0; stroke-opacity: 0.3; stroke-width: 0.8; stroke-linecap: square"/>
     </g>
     <g id="line2d_6">
      <g>
       <use xlink:href="#m28eb50ad0b" x="441.528537" y="386.44" style="stroke: #000000; stroke-width: 0.8"/>
      </g>
     </g>
     <g id="text_3">
      <!-- 40 -->
      <g transform="translate(435.166037 401.038437) scale(0.1 -0.1)">
       <defs>
        <path id="DejaVuSans-34" d="M 2419 4116 
L 825 1625 
L 2419 1625 
L 2419 4116 
z
M 2253 4666 
L 3047 4666 
L 3047 1625 
L 3713 1625 
L 3713 1100 
L 3047 1100 
L 3047 0 
L 2419 0 
L 2419 1100 
L 313 1100 
L 313 1709 
L 2253 4666 
z
" transform="scale(0.015625)"/>
       </defs>
       <use xlink:href="#DejaVuSans-34"/>
       <use xlink:href="#DejaVuSans-30" transform="translate(63.623047 0)"/>
      </g>
     </g>
    </g>
    <g id="xtick_4">
     <g id="line2d_7">
      <path d="M 621.900154 386.44 
L 621.900154 7.2 
" clip-path="url(#p427098e172)" style="fill: none; stroke: #b0b0b0; stroke-opacity: 0.3; stroke-width: 0.8; stroke-linecap: square"/>
     </g>
     <g id="line2d_8">
      <g>
       <use xlink:href="#m28eb50ad0b" x="621.900154" y="386.44" style="stroke: #000000; stroke-width: 0.8"/>
      </g>
     </g>
     <g id="text_4">
      <!-- 60 -->
      <g transform="translate(615.537654 401.038437) scale(0.1 -0.1)">
       <defs>
        <path id="DejaVuSans-36" d="M 2113 2584 
Q 1688 2584 1439 2293 
Q 1191 2003 1191 1497 
Q 1191 994 1439 701 
Q 1688 409 2113 409 
Q 2538 409 2786 701 
Q 3034 994 3034 1497 
Q 3034 2003 2786 2293 
Q 2538 2584 2113 2584 
z
M 3366 4563 
L 3366 3988 
Q 3128 4100 2886 4159 
Q 2644 4219 2406 4219 
Q 1781 4219 1451 3797 
Q 1122 3375 1075 2522 
Q 1259 2794 1537 2939 
Q 1816 3084 2150 3084 
Q 2853 3084 3261 2657 
Q 3669 2231 3669 1497 
Q 3669 778 3244 343 
Q 2819 -91 2113 -91 
Q 1303 -91 875 529 
Q 447 1150 447 2328 
Q 447 3434 972 4092 
Q 1497 4750 2381 4750 
Q 2619 4750 2861 4703 
Q 3103 4656 3366 4563 
z
" transform="scale(0.015625)"/>
       </defs>
       <use xlink:href="#DejaVuSans-36"/>
       <use xlink:href="#DejaVuSans-30" transform="translate(63.623047 0)"/>
      </g>
     </g>
    </g>
    <g id="xtick_5">
     <g id="line2d_9">
      <path d="M 802.271771 386.44 
L 802.271771 7.2 
" clip-path="url(#p427098e172)" style="fill: none; stroke: #b0b0b0; stroke-opacity: 0.3; stroke-width: 0.8; stroke-linecap: square"/>
     </g>
     <g id="line2d_10">
      <g>
       <use xlink:href="#m28eb50ad0b" x="802.271771" y="386.44" style="stroke: #000000; stroke-width: 0.8"/>
      </g>
     </g>
     <g id="text_5">
      <!-- 80 -->
      <g transform="translate(795.909271 401.038437) scale(0.1 -0.1)">
       <defs>
        <path id="DejaVuSans-38" d="M 2034 2216 
Q 1584 2216 1326 1975 
Q 1069 1734 1069 1313 
Q 1069 891 1326 650 
Q 1584 409 2034 409 
Q 2484 409 2743 651 
Q 3003 894 3003 1313 
Q 3003 1734 2745 1975 
Q 2488 2216 2034 2216 
z
M 1403 2484 
Q 997 2584 770 2862 
Q 544 3141 544 3541 
Q 544 4100 942 4425 
Q 1341 4750 2034 4750 
Q 2731 4750 3128 4425 
Q 3525 4100 3525 3541 
Q 3525 3141 3298 2862 
Q 3072 2584 2669 2484 
Q 3125 2378 3379 2068 
Q 3634 1759 3634 1313 
Q 3634 634 3220 271 
Q 2806 -91 2034 -91 
Q 1263 -91 848 271 
Q 434 634 434 1313 
Q 434 1759 690 2068 
Q 947 2378 1403 2484 
z
M 1172 3481 
Q 1172 3119 1398 2916 
Q 1625 2713 2034 2713 
Q 2441 2713 2670 2916 
Q 2900 3119 2900 3481 
Q 2900 3844 2670 4047 
Q 2441 4250 2034 4250 
Q 1625 4250 1398 4047 
Q 1172 3844 1172 3481 
z
" transform="scale(0.015625)"/>
       </defs>
       <use xlink:href="#DejaVuSans-38"/>
       <use xlink:href="#DejaVuSans-30" transform="translate(63.623047 0)"/>
      </g>
     </g>
    </g>
    <g id="xtick_6">
     <g id="line2d_11">
      <path d="M 982.643388 386.44 
L 982.643388 7.2 
" clip-path="url(#p427098e172)" style="fill: none; stroke: #b0b0b0; stroke-opacity: 0.3; stroke-width: 0.8; stroke-linecap: square"/>
     </g>
     <g id="line2d_12">
      <g>
       <use xlink:href="#m28eb50ad0b" x="982.643388" y="386.44" style="stroke: #000000; stroke-width: 0.8"/>
      </g>
     </g>
     <g id="text_6">
      <!-- 100 -->
      <g transform="translate(973.099638 401.038437) scale(0.1 -0.1)">
       <defs>
        <path id="DejaVuSans-31" d="M 794 531 
L 1825 531 
L 1825 4091 
L 703 3866 
L 703 4441 
L 1819 4666 
L 2450 4666 
L 2450 531 
L 3481 531 
L 3481 0 
L 794 0 
L 794 531 
z
" transform="scale(0.015625)"/>
       </defs>
       <use xlink:href="#DejaVuSans-31"/>
       <use xlink:href="#DejaVuSans-30" transform="translate(63.623047 0)"/>
       <use xlink:href="#DejaVuSans-30" transform="translate(127.246094 0)"/>
      </g>
     </g>
    </g>
    <g id="text_7">
     <!-- Quarter-hour (qh) -->
     <g transform="translate(474.098974 414.716562) scale(0.1 -0.1)">
      <defs>
       <path id="DejaVuSans-51" d="M 2522 4238 
Q 1834 4238 1429 3725 
Q 1025 3213 1025 2328 
Q 1025 1447 1429 934 
Q 1834 422 2522 422 
Q 3209 422 3611 934 
Q 4013 1447 4013 2328 
Q 4013 3213 3611 3725 
Q 3209 4238 2522 4238 
z
M 3406 84 
L 4238 -825 
L 3475 -825 
L 2784 -78 
Q 2681 -84 2626 -87 
Q 2572 -91 2522 -91 
Q 1538 -91 948 567 
Q 359 1225 359 2328 
Q 359 3434 948 4092 
Q 1538 4750 2522 4750 
Q 3503 4750 4090 4092 
Q 4678 3434 4678 2328 
Q 4678 1516 4351 937 
Q 4025 359 3406 84 
z
" transform="scale(0.015625)"/>
       <path id="DejaVuSans-75" d="M 544 1381 
L 544 3500 
L 1119 3500 
L 1119 1403 
Q 1119 906 1312 657 
Q 1506 409 1894 409 
Q 2359 409 2629 706 
Q 2900 1003 2900 1516 
L 2900 3500 
L 3475 3500 
L 3475 0 
L 2900 0 
L 2900 538 
Q 2691 219 2414 64 
Q 2138 -91 1772 -91 
Q 1169 -91 856 284 
Q 544 659 544 1381 
z
M 1991 3584 
L 1991 3584 
z
" transform="scale(0.015625)"/>
       <path id="DejaVuSans-61" d="M 2194 1759 
Q 1497 1759 1228 1600 
Q 959 1441 959 1056 
Q 959 750 1161 570 
Q 1363 391 1709 391 
Q 2188 391 2477 730 
Q 2766 1069 2766 1631 
L 2766 1759 
L 2194 1759 
z
M 3341 1997 
L 3341 0 
L 2766 0 
L 2766 531 
Q 2569 213 2275 61 
Q 1981 -91 1556 -91 
Q 1019 -91 701 211 
Q 384 513 384 1019 
Q 384 1609 779 1909 
Q 1175 2209 1959 2209 
L 2766 2209 
L 2766 2266 
Q 2766 2663 2505 2880 
Q 2244 3097 1772 3097 
Q 1472 3097 1187 3025 
Q 903 2953 641 2809 
L 641 3341 
Q 956 3463 1253 3523 
Q 1550 3584 1831 3584 
Q 2591 3584 2966 3190 
Q 3341 2797 3341 1997 
z
" transform="scale(0.015625)"/>
       <path id="DejaVuSans-72" d="M 2631 2963 
Q 2534 3019 2420 3045 
Q 2306 3072 2169 3072 
Q 1681 3072 1420 2755 
Q 1159 2438 1159 1844 
L 1159 0 
L 581 0 
L 581 3500 
L 1159 3500 
L 1159 2956 
Q 1341 3275 1631 3429 
Q 1922 3584 2338 3584 
Q 2397 3584 2469 3576 
Q 2541 3569 2628 3553 
L 2631 2963 
z
" transform="scale(0.015625)"/>
       <path id="DejaVuSans-74" d="M 1172 4494 
L 1172 3500 
L 2356 3500 
L 2356 3053 
L 1172 3053 
L 1172 1153 
Q 1172 725 1289 603 
Q 1406 481 1766 481 
L 2356 481 
L 2356 0 
L 1766 0 
Q 1100 0 847 248 
Q 594 497 594 1153 
L 594 3053 
L 172 3053 
L 172 3500 
L 594 3500 
L 594 4494 
L 1172 4494 
z
" transform="scale(0.015625)"/>
       <path id="DejaVuSans-65" d="M 3597 1894 
L 3597 1613 
L 953 1613 
Q 991 1019 1311 708 
Q 1631 397 2203 397 
Q 2534 397 2845 478 
Q 3156 559 3463 722 
L 3463 178 
Q 3153 47 2828 -22 
Q 2503 -91 2169 -91 
Q 1331 -91 842 396 
Q 353 884 353 1716 
Q 353 2575 817 3079 
Q 1281 3584 2069 3584 
Q 2775 3584 3186 3129 
Q 3597 2675 3597 1894 
z
M 3022 2063 
Q 3016 2534 2758 2815 
Q 2500 3097 2075 3097 
Q 1594 3097 1305 2825 
Q 1016 2553 972 2059 
L 3022 2063 
z
" transform="scale(0.015625)"/>
       <path id="DejaVuSans-2d" d="M 313 2009 
L 1997 2009 
L 1997 1497 
L 313 1497 
L 313 2009 
z
" transform="scale(0.015625)"/>
       <path id="DejaVuSans-68" d="M 3513 2113 
L 3513 0 
L 2938 0 
L 2938 2094 
Q 2938 2591 2744 2837 
Q 2550 3084 2163 3084 
Q 1697 3084 1428 2787 
Q 1159 2491 1159 1978 
L 1159 0 
L 581 0 
L 581 4863 
L 1159 4863 
L 1159 2956 
Q 1366 3272 1645 3428 
Q 1925 3584 2291 3584 
Q 2894 3584 3203 3211 
Q 3513 2838 3513 2113 
z
" transform="scale(0.015625)"/>
       <path id="DejaVuSans-6f" d="M 1959 3097 
Q 1497 3097 1228 2736 
Q 959 2375 959 1747 
Q 959 1119 1226 758 
Q 1494 397 1959 397 
Q 2419 397 2687 759 
Q 2956 1122 2956 1747 
Q 2956 2369 2687 2733 
Q 2419 3097 1959 3097 
z
M 1959 3584 
Q 2709 3584 3137 3096 
Q 3566 2609 3566 1747 
Q 3566 888 3137 398 
Q 2709 -91 1959 -91 
Q 1206 -91 779 398 
Q 353 888 353 1747 
Q 353 2609 779 3096 
Q 1206 3584 1959 3584 
z
" transform="scale(0.015625)"/>
       <path id="DejaVuSans-20" transform="scale(0.015625)"/>
       <path id="DejaVuSans-28" d="M 1984 4856 
Q 1566 4138 1362 3434 
Q 1159 2731 1159 2009 
Q 1159 1288 1364 580 
Q 1569 -128 1984 -844 
L 1484 -844 
Q 1016 -109 783 600 
Q 550 1309 550 2009 
Q 550 2706 781 3412 
Q 1013 4119 1484 4856 
L 1984 4856 
z
" transform="scale(0.015625)"/>
       <path id="DejaVuSans-71" d="M 947 1747 
Q 947 1113 1208 752 
Q 1469 391 1925 391 
Q 2381 391 2643 752 
Q 2906 1113 2906 1747 
Q 2906 2381 2643 2742 
Q 2381 3103 1925 3103 
Q 1469 3103 1208 2742 
Q 947 2381 947 1747 
z
M 2906 525 
Q 2725 213 2448 61 
Q 2172 -91 1784 -91 
Q 1150 -91 751 415 
Q 353 922 353 1747 
Q 353 2572 751 3078 
Q 1150 3584 1784 3584 
Q 2172 3584 2448 3432 
Q 2725 3281 2906 2969 
L 2906 3500 
L 3481 3500 
L 3481 -1331 
L 2906 -1331 
L 2906 525 
z
" transform="scale(0.015625)"/>
       <path id="DejaVuSans-29" d="M 513 4856 
L 1013 4856 
Q 1481 4119 1714 3412 
Q 1947 2706 1947 2009 
Q 1947 1309 1714 600 
Q 1481 -109 1013 -844 
L 513 -844 
Q 928 -128 1133 580 
Q 1338 1288 1338 2009 
Q 1338 2731 1133 3434 
Q 928 4138 513 4856 
z
" transform="scale(0.015625)"/>
      </defs>
      <use xlink:href="#DejaVuSans-51"/>
      <use xlink:href="#DejaVuSans-75" transform="translate(78.710938 0)"/>
      <use xlink:href="#DejaVuSans-61" transform="translate(142.089844 0)"/>
      <use xlink:href="#DejaVuSans-72" transform="translate(203.369141 0)"/>
      <use xlink:href="#DejaVuSans-74" transform="translate(244.482422 0)"/>
      <use xlink:href="#DejaVuSans-65" transform="translate(283.691406 0)"/>
      <use xlink:href="#DejaVuSans-72" transform="translate(345.214844 0)"/>
      <use xlink:href="#DejaVuSans-2d" transform="translate(379.953125 0)"/>
      <use xlink:href="#DejaVuSans-68" transform="translate(416.037109 0)"/>
      <use xlink:href="#DejaVuSans-6f" transform="translate(479.416016 0)"/>
      <use xlink:href="#DejaVuSans-75" transform="translate(540.597656 0)"/>
      <use xlink:href="#DejaVuSans-72" transform="translate(603.976562 0)"/>
      <use xlink:href="#DejaVuSans-20" transform="translate(645.089844 0)"/>
      <use xlink:href="#DejaVuSans-28" transform="translate(676.876953 0)"/>
      <use xlink:href="#DejaVuSans-71" transform="translate(715.890625 0)"/>
      <use xlink:href="#DejaVuSans-68" transform="translate(779.367188 0)"/>
      <use xlink:href="#DejaVuSans-29" transform="translate(842.746094 0)"/>
     </g>
    </g>
   </g>
   <g id="matplotlib.axis_2">
    <g id="ytick_1">
     <g id="line2d_13">
      <path d="M 46.965625 347.770942 
L 989.407324 347.770942 
" clip-path="url(#p427098e172)" style="fill: none; stroke: #b0b0b0; stroke-opacity: 0.3; stroke-width: 0.8; stroke-linecap: square"/>
     </g>
     <g id="line2d_14">
      <defs>
       <path id="m2ee59467ad" d="M 0 0 
L -3.5 0 
" style="stroke: #000000; stroke-width: 0.8"/>
      </defs>
      <g>
       <use xlink:href="#m2ee59467ad" x="46.965625" y="347.770942" style="stroke: #000000; stroke-width: 0.8"/>
      </g>
     </g>
     <g id="text_8">
      <!-- 0 -->
      <g transform="translate(33.603125 351.570161) scale(0.1 -0.1)">
       <use xlink:href="#DejaVuSans-30"/>
      </g>
     </g>
    </g>
    <g id="ytick_2">
     <g id="line2d_15">
      <path d="M 46.965625 291.961369 
L 989.407324 291.961369 
" clip-path="url(#p427098e172)" style="fill: none; stroke: #b0b0b0; stroke-opacity: 0.3; stroke-width: 0.8; stroke-linecap: square"/>
     </g>
     <g id="line2d_16">
      <g>
       <use xlink:href="#m2ee59467ad" x="46.965625" y="291.961369" style="stroke: #000000; stroke-width: 0.8"/>
      </g>
     </g>
     <g id="text_9">
      <!-- 20 -->
      <g transform="translate(27.240625 295.760588) scale(0.1 -0.1)">
       <use xlink:href="#DejaVuSans-32"/>
       <use xlink:href="#DejaVuSans-30" transform="translate(63.623047 0)"/>
      </g>
     </g>
    </g>
    <g id="ytick_3">
     <g id="line2d_17">
      <path d="M 46.965625 236.151796 
L 989.407324 236.151796 
" clip-path="url(#p427098e172)" style="fill: none; stroke: #b0b0b0; stroke-opacity: 0.3; stroke-width: 0.8; stroke-linecap: square"/>
     </g>
     <g id="line2d_18">
      <g>
       <use xlink:href="#m2ee59467ad" x="46.965625" y="236.151796" style="stroke: #000000; stroke-width: 0.8"/>
      </g>
     </g>
     <g id="text_10">
      <!-- 40 -->
      <g transform="translate(27.240625 239.951015) scale(0.1 -0.1)">
       <use xlink:href="#DejaVuSans-34"/>
       <use xlink:href="#DejaVuSans-30" transform="translate(63.623047 0)"/>
      </g>
     </g>
    </g>
    <g id="ytick_4">
     <g id="line2d_19">
      <path d="M 46.965625 180.342224 
L 989.407324 180.342224 
" clip-path="url(#p427098e172)" style="fill: none; stroke: #b0b0b0; stroke-opacity: 0.3; stroke-width: 0.8; stroke-linecap: square"/>
     </g>
     <g id="line2d_20">
      <g>
       <use xlink:href="#m2ee59467ad" x="46.965625" y="180.342224" style="stroke: #000000; stroke-width: 0.8"/>
      </g>
     </g>
     <g id="text_11">
      <!-- 60 -->
      <g transform="translate(27.240625 184.141442) scale(0.1 -0.1)">
       <use xlink:href="#DejaVuSans-36"/>
       <use xlink:href="#DejaVuSans-30" transform="translate(63.623047 0)"/>
      </g>
     </g>
    </g>
    <g id="ytick_5">
     <g id="line2d_21">
      <path d="M 46.965625 124.532651 
L 989.407324 124.532651 
" clip-path="url(#p427098e172)" style="fill: none; stroke: #b0b0b0; stroke-opacity: 0.3; stroke-width: 0.8; stroke-linecap: square"/>
     </g>
     <g id="line2d_22">
      <g>
       <use xlink:href="#m2ee59467ad" x="46.965625" y="124.532651" style="stroke: #000000; stroke-width: 0.8"/>
      </g>
     </g>
     <g id="text_12">
      <!-- 80 -->
      <g transform="translate(27.240625 128.331869) scale(0.1 -0.1)">
       <use xlink:href="#DejaVuSans-38"/>
       <use xlink:href="#DejaVuSans-30" transform="translate(63.623047 0)"/>
      </g>
     </g>
    </g>
    <g id="ytick_6">
     <g id="line2d_23">
      <path d="M 46.965625 68.723078 
L 989.407324 68.723078 
" clip-path="url(#p427098e172)" style="fill: none; stroke: #b0b0b0; stroke-opacity: 0.3; stroke-width: 0.8; stroke-linecap: square"/>
     </g>
     <g id="line2d_24">
      <g>
       <use xlink:href="#m2ee59467ad" x="46.965625" y="68.723078" style="stroke: #000000; stroke-width: 0.8"/>
      </g>
     </g>
     <g id="text_13">
      <!-- 100 -->
      <g transform="translate(20.878125 72.522297) scale(0.1 -0.1)">
       <use xlink:href="#DejaVuSans-31"/>
       <use xlink:href="#DejaVuSans-30" transform="translate(63.623047 0)"/>
       <use xlink:href="#DejaVuSans-30" transform="translate(127.246094 0)"/>
      </g>
     </g>
    </g>
    <g id="ytick_7">
     <g id="line2d_25">
      <path d="M 46.965625 12.913505 
L 989.407324 12.913505 
" clip-path="url(#p427098e172)" style="fill: none; stroke: #b0b0b0; stroke-opacity: 0.3; stroke-width: 0.8; stroke-linecap: square"/>
     </g>
     <g id="line2d_26">
      <g>
       <use xlink:href="#m2ee59467ad" x="46.965625" y="12.913505" style="stroke: #000000; stroke-width: 0.8"/>
      </g>
     </g>
     <g id="text_14">
      <!-- 120 -->
      <g transform="translate(20.878125 16.712724) scale(0.1 -0.1)">
       <use xlink:href="#DejaVuSans-31"/>
       <use xlink:href="#DejaVuSans-32" transform="translate(63.623047 0)"/>
       <use xlink:href="#DejaVuSans-30" transform="translate(127.246094 0)"/>
      </g>
     </g>
    </g>
    <g id="text_15">
     <!-- €/MWh -->
     <g transform="translate(14.798437 214.112187) rotate(-90) scale(0.1 -0.1)">
      <defs>
       <path id="DejaVuSans-20ac" d="M 3647 4306 
L 3647 3641 
Q 3363 3969 3098 4109 
Q 2834 4250 2516 4250 
Q 2025 4250 1709 3937 
Q 1394 3625 1294 3041 
L 3097 3041 
L 2925 2656 
L 1244 2656 
Q 1238 2581 1236 2509 
Q 1234 2438 1234 2328 
Q 1234 2228 1236 2156 
Q 1238 2084 1244 2009 
L 2638 2009 
L 2463 1625 
L 1294 1625 
Q 1394 1041 1709 725 
Q 2025 409 2516 409 
Q 2834 409 3098 550 
Q 3363 691 3647 1019 
L 3647 359 
Q 3369 134 3080 21 
Q 2791 -91 2491 -91 
Q 1750 -91 1267 362 
Q 784 816 659 1625 
L 0 1625 
L 172 2009 
L 606 2009 
Q 606 2081 604 2154 
Q 603 2228 603 2328 
Q 603 2438 604 2511 
Q 606 2584 606 2656 
L 0 2656 
L 172 3041 
L 659 3041 
Q 784 3844 1268 4297 
Q 1753 4750 2491 4750 
Q 2797 4750 3086 4639 
Q 3375 4528 3647 4306 
z
" transform="scale(0.015625)"/>
       <path id="DejaVuSans-2f" d="M 1625 4666 
L 2156 4666 
L 531 -594 
L 0 -594 
L 1625 4666 
z
" transform="scale(0.015625)"/>
       <path id="DejaVuSans-4d" d="M 628 4666 
L 1569 4666 
L 2759 1491 
L 3956 4666 
L 4897 4666 
L 4897 0 
L 4281 0 
L 4281 4097 
L 3078 897 
L 2444 897 
L 1241 4097 
L 1241 0 
L 628 0 
L 628 4666 
z
" transform="scale(0.015625)"/>
       <path id="DejaVuSans-57" d="M 213 4666 
L 850 4666 
L 1831 722 
L 2809 4666 
L 3519 4666 
L 4500 722 
L 5478 4666 
L 6119 4666 
L 4947 0 
L 4153 0 
L 3169 4050 
L 2175 0 
L 1381 0 
L 213 4666 
z
" transform="scale(0.015625)"/>
      </defs>
      <use xlink:href="#DejaVuSans-20ac"/>
      <use xlink:href="#DejaVuSans-2f" transform="translate(63.623047 0)"/>
      <use xlink:href="#DejaVuSans-4d" transform="translate(97.314453 0)"/>
      <use xlink:href="#DejaVuSans-57" transform="translate(183.59375 0)"/>
      <use xlink:href="#DejaVuSans-68" transform="translate(282.470703 0)"/>
     </g>
    </g>
   </g>
   <g id="line2d_27">
    <path d="M 89.803884 24.438182 
L 125.878207 24.438182 
L 125.878207 44.083151 
L 161.952531 44.083151 
L 161.952531 53.375445 
L 198.026854 53.375445 
L 198.026854 43.60877 
L 234.101178 43.60877 
L 234.101178 53.45916 
L 270.175501 53.45916 
L 270.175501 74.304035 
L 306.249824 74.304035 
L 306.249824 82.675471 
L 342.324148 82.675471 
L 342.324148 58.956403 
L 378.398471 58.956403 
L 378.398471 50.110585 
L 414.472795 50.110585 
L 414.472795 117.109978 
L 450.547118 117.109978 
L 450.547118 239.500371 
L 486.621441 239.500371 
L 486.621441 291.26375 
L 522.695765 291.26375 
L 522.695765 300.918806 
L 558.770088 300.918806 
L 558.770088 311.745863 
L 594.844411 311.745863 
L 594.844411 329.604926 
L 630.918735 329.604926 
L 630.918735 331.02807 
L 666.993058 331.02807 
L 666.993058 313.531769 
L 703.067382 313.531769 
L 703.067382 266.288966 
L 739.141705 266.288966 
L 739.141705 160.808873 
L 775.216028 160.808873 
L 775.216028 89.484239 
L 811.290352 89.484239 
L 811.290352 60.044689 
L 847.364675 60.044689 
L 847.364675 68.611459 
L 883.438999 68.611459 
L 883.438999 82.480138 
L 919.513322 82.480138 
L 919.513322 91.493384 
L 946.569065 91.493384 
L 946.569065 91.493384 
" clip-path="url(#p427098e172)" style="fill: none; stroke: #1f77b4; stroke-width: 1.4; stroke-linecap: square"/>
   </g>
   <g id="line2d_28">
    <path d="M 89.803884 49.580394 
L 98.822465 49.580394 
L 98.822465 52.315063 
L 107.841046 52.315063 
L 107.841046 53.989351 
L 116.859627 53.989351 
L 116.859627 57.923926 
L 125.878207 57.923926 
L 125.878207 66.546505 
L 134.896788 66.546505 
L 134.896788 70.118317 
L 143.915369 70.118317 
L 143.915369 71.987938 
L 152.93395 71.987938 
L 152.93395 77.568895 
L 161.952531 77.568895 
L 161.952531 78.88042 
L 170.971112 78.88042 
L 170.971112 81.252327 
L 179.989693 81.252327 
L 179.989693 82.340614 
L 189.008273 82.340614 
L 189.008273 85.047378 
L 198.026854 85.047378 
L 198.026854 70.648508 
L 207.045435 70.648508 
L 207.045435 71.513557 
L 216.064016 71.513557 
L 216.064016 74.024987 
L 225.082597 74.024987 
L 225.082597 77.094514 
L 234.101178 77.094514 
L 234.101178 81.336041 
L 252.138339 81.363946 
L 252.138339 81.44766 
L 261.15692 81.44766 
L 261.15692 82.898709 
L 270.175501 82.898709 
L 270.175501 88.954048 
L 279.194082 88.954048 
L 279.194082 90.851574 
L 288.212663 90.851574 
L 288.212663 91.465479 
L 297.231244 91.465479 
L 297.231244 88.256428 
L 306.249824 88.256428 
L 306.249824 93.753671 
L 324.286986 93.753671 
L 324.286986 91.99567 
L 333.305567 91.99567 
L 333.305567 88.898238 
L 342.324148 88.898238 
L 342.324148 87.837857 
L 351.342729 87.837857 
L 351.342729 86.582141 
L 360.361309 86.582141 
L 360.361309 83.735853 
L 369.37989 83.735853 
L 369.37989 78.210705 
L 378.398471 78.210705 
L 378.398471 63.337454 
L 387.417052 63.337454 
L 387.417052 69.950888 
L 396.435633 69.950888 
L 396.435633 97.548722 
L 405.454214 97.548722 
L 405.454214 133.824945 
L 414.472795 133.824945 
L 414.472795 74.080797 
L 423.491375 74.080797 
L 423.491375 103.855204 
L 432.509956 103.855204 
L 432.509956 187.31842 
L 441.528537 187.31842 
L 441.528537 263.386868 
L 450.547118 263.386868 
L 450.547118 135.750375 
L 459.565699 135.750375 
L 459.565699 233.919414 
L 468.58428 233.919414 
L 468.58428 295.282039 
L 477.60286 295.282039 
L 477.60286 345.957131 
L 486.621441 345.957131 
L 486.621441 277.311356 
L 495.640022 277.311356 
L 495.640022 291.26375 
L 504.658603 291.26375 
L 504.658603 294.054228 
L 513.677184 294.054228 
L 513.677184 330.330451 
L 522.695765 330.330451 
L 522.695765 300.918806 
L 558.770088 301.00252 
L 558.770088 311.745863 
L 567.788669 311.745863 
L 567.788669 312.303959 
L 576.80725 312.303959 
L 576.80725 331.251309 
L 594.844411 331.251309 
L 594.844411 333.427882 
L 612.881573 333.427882 
L 612.881573 342.189985 
L 621.900154 342.189985 
L 621.900154 343.557319 
L 630.918735 343.557319 
L 630.918735 344.980464 
L 657.974477 344.980464 
L 657.974477 338.813506 
L 666.993058 338.813506 
L 666.993058 349.138277 
L 676.011639 349.138277 
L 676.011639 342.189985 
L 685.03022 342.189985 
L 685.03022 323.744921 
L 694.048801 323.744921 
L 694.048801 305.690524 
L 703.067382 305.690524 
L 703.067382 347.770942 
L 712.085963 347.770942 
L 712.085963 300.918806 
L 721.104543 300.918806 
L 721.104543 274.93945 
L 730.123124 274.93945 
L 730.123124 241.983897 
L 739.141705 241.983897 
L 739.141705 311.327291 
L 748.160286 311.327291 
L 748.160286 261.098676 
L 757.178867 261.098676 
L 757.178867 125.537223 
L 766.197448 125.537223 
L 766.197448 87.475094 
L 775.216028 87.475094 
L 775.216028 193.90395 
L 784.234609 193.90395 
L 784.234609 113.593974 
L 793.25319 113.593974 
L 793.25319 89.484239 
L 802.271771 89.484239 
L 802.271771 63.83974 
L 811.290352 63.83974 
L 811.290352 107.733969 
L 820.308933 107.733969 
L 820.308933 98.385866 
L 829.327514 98.385866 
L 829.327514 89.623763 
L 838.346094 89.623763 
L 838.346094 90.879478 
L 847.364675 90.879478 
L 847.364675 92.135194 
L 856.383256 92.135194 
L 856.383256 95.065196 
L 865.401837 95.065196 
L 865.401837 102.097202 
L 874.420418 102.097202 
L 874.420418 118.337788 
L 883.438999 118.337788 
L 883.438999 96.962722 
L 892.457579 96.962722 
L 892.457579 106.98054 
L 901.47616 106.98054 
L 901.47616 110.105876 
L 910.494741 110.105876 
L 910.494741 138.010663 
L 919.513322 138.010663 
L 919.513322 100.143867 
L 928.531903 100.143867 
L 928.531903 105.445777 
L 937.550484 105.445777 
L 937.550484 112.449878 
L 946.569065 112.449878 
L 946.569065 119.649313 
L 946.569065 119.649313 
" clip-path="url(#p427098e172)" style="fill: none; stroke: #ff7f0e; stroke-width: 1.4; stroke-linecap: square"/>
   </g>
   <g id="line2d_29">
    <path d="M 89.803884 52.06392 
L 98.822465 52.06392 
L 98.822465 40.902006 
L 107.841046 40.902006 
L 107.841046 70.704318 
L 116.859627 70.704318 
L 116.859627 83.596329 
L 125.878207 83.596329 
L 125.878207 72.099557 
L 134.896788 72.099557 
L 134.896788 73.076225 
L 143.915369 73.076225 
L 143.915369 83.875377 
L 152.93395 83.875377 
L 152.93395 88.256428 
L 161.952531 88.256428 
L 161.952531 81.001184 
L 179.989693 81.084898 
L 179.989693 84.433473 
L 189.008273 84.433473 
L 189.008273 88.256428 
L 198.026854 88.256428 
L 198.026854 73.271558 
L 207.045435 73.271558 
L 207.045435 83.400996 
L 216.064016 83.400996 
L 216.064016 85.717093 
L 225.082597 85.717093 
L 225.082597 88.256428 
L 234.101178 88.256428 
L 234.101178 83.875377 
L 243.119758 83.875377 
L 243.119758 85.717093 
L 252.138339 85.717093 
L 252.138339 88.256428 
L 270.175501 88.340143 
L 270.175501 81.084898 
L 279.194082 81.084898 
L 279.194082 75.922513 
L 288.212663 75.922513 
L 288.212663 75.001655 
L 297.231244 75.001655 
L 297.231244 73.271558 
L 306.249824 73.271558 
L 306.249824 69.002126 
L 315.268405 69.002126 
L 315.268405 68.806792 
L 333.305567 68.723078 
L 333.305567 60.63069 
L 342.324148 60.63069 
L 342.324148 90.293478 
L 351.342729 90.293478 
L 351.342729 85.103188 
L 360.361309 85.103188 
L 360.361309 83.875377 
L 369.37989 83.875377 
L 369.37989 76.95499 
L 378.398471 76.95499 
L 378.398471 70.285746 
L 387.417052 70.285746 
L 387.417052 90.01443 
L 396.435633 90.01443 
L 396.435633 106.868921 
L 405.454214 106.868921 
L 405.454214 133.824945 
L 414.472795 133.824945 
L 414.472795 52.259254 
L 423.491375 52.259254 
L 423.491375 85.884522 
L 432.509956 85.884522 
L 432.509956 134.131897 
L 441.528537 134.131897 
L 441.528537 256.63391 
L 450.547118 256.63391 
L 450.547118 119.286551 
L 459.565699 119.286551 
L 459.565699 231.407983 
L 468.58428 231.407983 
L 468.58428 262.828772 
L 477.60286 262.828772 
L 477.60286 345.957131 
L 486.621441 345.957131 
L 486.621441 248.011331 
L 495.640022 248.011331 
L 495.640022 291.821845 
L 504.658603 291.821845 
L 504.658603 305.132429 
L 513.677184 305.132429 
L 513.677184 317.354725 
L 522.695765 317.354725 
L 522.695765 300.918806 
L 531.714346 300.918806 
L 531.714346 314.787485 
L 540.732926 314.787485 
L 540.732926 313.224817 
L 549.751507 313.224817 
L 549.751507 316.350153 
L 558.770088 316.350153 
L 558.770088 325.614542 
L 567.788669 325.614542 
L 567.788669 327.651591 
L 576.80725 327.651591 
L 576.80725 333.818549 
L 585.825831 333.818549 
L 585.825831 337.948457 
L 594.844411 337.948457 
L 594.844411 345.957131 
L 603.862992 345.957131 
L 603.862992 343.557319 
L 612.881573 343.557319 
L 612.881573 345.957131 
L 621.900154 345.957131 
L 621.900154 347.743037 
L 630.918735 347.743037 
L 630.918735 348.04999 
L 648.955897 348.04999 
L 648.955897 347.798847 
L 657.974477 347.798847 
L 657.974477 344.952559 
L 666.993058 344.952559 
L 666.993058 353.630947 
L 676.011639 353.630947 
L 676.011639 347.770942 
L 685.03022 347.770942 
L 685.03022 320.507966 
L 694.048801 320.507966 
L 694.048801 290.342892 
L 703.067382 290.342892 
L 703.067382 332.200071 
L 712.085963 332.200071 
L 712.085963 280.241359 
L 721.104543 280.241359 
L 721.104543 266.288966 
L 730.123124 266.288966 
L 730.123124 216.785875 
L 739.141705 216.785875 
L 739.141705 224.934072 
L 748.160286 224.934072 
L 748.160286 247.592759 
L 757.178867 247.592759 
L 757.178867 124.979127 
L 766.197448 124.979127 
L 766.197448 82.368518 
L 775.216028 82.368518 
L 775.216028 182.323463 
L 784.234609 182.323463 
L 784.234609 103.436632 
L 793.25319 103.436632 
L 793.25319 83.875377 
L 802.271771 83.875377 
L 802.271771 52.259254 
L 811.290352 52.259254 
L 811.290352 111.612735 
L 820.308933 111.612735 
L 820.308933 101.09263 
L 829.327514 101.09263 
L 829.327514 102.766917 
L 838.346094 102.766917 
L 838.346094 104.190061 
L 847.364675 104.190061 
L 847.364675 98.692819 
L 865.401837 98.692819 
L 865.401837 107.761874 
L 874.420418 107.761874 
L 874.420418 117.779692 
L 883.438999 117.779692 
L 883.438999 96.432531 
L 892.457579 96.432531 
L 892.457579 100.869392 
L 901.47616 100.869392 
L 901.47616 115.993786 
L 910.494741 115.993786 
L 910.494741 152.716485 
L 919.513322 152.716485 
L 919.513322 98.051008 
L 928.531903 98.051008 
L 928.531903 104.078442 
L 937.550484 104.078442 
L 937.550484 105.445777 
L 946.569065 105.445777 
L 946.569065 117.723883 
L 946.569065 117.723883 
" clip-path="url(#p427098e172)" style="fill: none; stroke: #2ca02c; stroke-width: 1.4; stroke-linecap: square"/>
   </g>
   <g id="line2d_30">
    <path d="M 522.695765 347.770942 
L 540.732926 347.770942 
L 540.732926 349.305705 
L 549.751507 349.305705 
L 549.751507 348.74761 
L 558.770088 348.74761 
L 558.770088 347.770942 
L 594.844411 347.770942 
L 594.844411 351.147421 
L 603.862992 351.147421 
L 603.862992 347.770942 
L 657.974477 347.770942 
L 657.974477 344.980464 
L 666.993058 344.980464 
L 666.993058 351.147421 
L 676.011639 351.147421 
L 676.011639 347.770942 
L 685.03022 347.770942 
L 685.03022 337.948457 
L 694.048801 337.948457 
L 694.048801 257.722196 
L 703.067382 257.722196 
L 703.067382 323.465873 
L 712.085963 323.465873 
L 712.085963 269.553826 
L 721.104543 269.553826 
L 721.104543 266.288966 
L 730.123124 266.288966 
L 730.123124 194.685284 
L 739.141705 194.685284 
L 739.141705 224.710834 
L 748.160286 224.710834 
L 748.160286 258.61515 
L 757.178867 258.61515 
L 757.178867 142.112666 
L 766.197448 142.112666 
L 766.197448 120.486457 
L 775.216028 120.486457 
L 775.216028 229.008171 
L 784.234609 229.008171 
L 784.234609 147.414576 
L 793.25319 147.414576 
L 793.25319 117.109978 
L 802.271771 117.109978 
L 802.271771 89.484239 
L 811.290352 89.484239 
L 811.290352 143.703239 
L 820.308933 143.703239 
L 820.308933 145.489145 
L 829.327514 145.489145 
L 829.327514 164.241162 
L 838.346094 164.241162 
L 838.346094 182.909464 
L 847.364675 182.909464 
L 847.364675 124.421032 
L 856.383256 124.421032 
L 856.383256 164.241162 
L 865.401837 164.241162 
L 865.401837 161.925065 
L 874.420418 161.925065 
L 874.420418 180.984034 
L 883.438999 180.984034 
L 883.438999 110.105876 
L 892.457579 110.105876 
L 892.457579 138.28971 
L 901.47616 138.28971 
L 901.47616 125.565128 
L 910.494741 125.565128 
L 910.494741 161.171635 
L 919.513322 161.171635 
L 919.513322 119.39817 
L 928.531903 119.39817 
L 928.531903 132.569229 
L 937.550484 132.569229 
L 937.550484 147.302956 
L 946.569065 147.302956 
L 946.569065 167.450212 
L 946.569065 167.450212 
" clip-path="url(#p427098e172)" style="fill: none; stroke: #d62728; stroke-width: 1.4; stroke-linecap: square"/>
   </g>
   <g id="line2d_31">
    <path d="M 89.803884 37.07905 
L 98.822465 37.07905 
L 98.822465 25.861326 
L 107.841046 25.861326 
L 107.841046 47.041059 
L 116.859627 47.041059 
L 116.859627 48.380489 
L 125.878207 48.380489 
L 125.878207 65.597742 
L 134.896788 65.597742 
L 134.896788 68.109173 
L 143.915369 68.109173 
L 143.915369 56.556591 
L 152.93395 56.556591 
L 152.93395 62.332882 
L 161.952531 62.332882 
L 161.952531 80.359374 
L 170.971112 80.359374 
L 170.971112 91.549193 
L 179.989693 91.549193 
L 179.989693 96.404626 
L 189.008273 96.404626 
L 189.008273 120.486457 
L 198.026854 120.486457 
L 198.026854 44.445914 
L 207.045435 44.445914 
L 207.045435 45.617915 
L 216.064016 45.617915 
L 216.064016 53.208017 
L 225.082597 53.208017 
L 225.082597 46.315534 
L 234.101178 46.315534 
L 234.101178 61.607357 
L 243.119758 61.607357 
L 243.119758 58.370402 
L 252.138339 58.370402 
L 252.138339 61.663167 
L 261.15692 61.663167 
L 261.15692 60.267928 
L 270.175501 60.267928 
L 270.175501 76.285275 
L 279.194082 76.285275 
L 279.194082 77.820038 
L 288.212663 77.820038 
L 288.212663 79.410611 
L 297.231244 79.410611 
L 297.231244 82.8429 
L 306.249824 82.8429 
L 306.249824 77.066609 
L 315.268405 77.066609 
L 315.268405 76.95499 
L 324.286986 76.95499 
L 324.286986 77.931657 
L 333.305567 77.931657 
L 333.305567 80.247755 
L 342.324148 80.247755 
L 342.324148 69.895079 
L 351.342729 69.895079 
L 351.342729 66.323266 
L 360.361309 66.323266 
L 360.361309 67.411553 
L 369.37989 67.411553 
L 369.37989 66.379076 
L 378.398471 66.379076 
L 378.398471 57.589068 
L 387.417052 57.589068 
L 387.417052 60.742309 
L 396.435633 60.742309 
L 396.435633 82.982424 
L 405.454214 82.982424 
L 405.454214 105.613206 
L 414.472795 105.613206 
L 414.472795 88.005285 
L 423.491375 88.005285 
L 423.491375 117.026263 
L 432.509956 117.026263 
L 432.509956 142.94981 
L 441.528537 142.94981 
L 441.528537 227.25017 
L 450.547118 227.25017 
L 450.547118 207.828438 
L 459.565699 207.828438 
L 459.565699 248.876379 
L 468.58428 248.876379 
L 468.58428 262.186962 
L 477.60286 262.186962 
L 477.60286 306.30443 
L 486.621441 306.30443 
L 486.621441 276.585832 
L 495.640022 276.585832 
L 495.640022 287.719842 
L 504.658603 287.719842 
L 504.658603 287.468699 
L 513.677184 287.468699 
L 513.677184 291.793941 
L 522.695765 291.793941 
L 522.695765 306.667192 
L 531.714346 306.667192 
L 531.714346 334.125502 
L 540.732926 334.125502 
L 540.732926 352.235708 
L 549.751507 352.235708 
L 549.751507 356.50514 
L 558.770088 356.50514 
L 558.770088 352.319422 
L 567.788669 352.319422 
L 567.788669 357.984094 
L 576.80725 357.984094 
L 576.80725 362.616289 
L 585.825831 362.616289 
L 585.825831 360.439715 
L 594.844411 360.439715 
L 594.844411 353.99371 
L 603.862992 353.99371 
L 603.862992 355.667997 
L 612.881573 355.667997 
L 612.881573 366.243911 
L 621.900154 366.243911 
L 621.900154 367.025245 
L 630.918735 367.025245 
L 630.918735 369.201818 
L 639.937316 369.201818 
L 639.937316 367.611245 
L 648.955897 367.611245 
L 648.955897 364.960291 
L 657.974477 364.960291 
L 657.974477 362.504669 
L 666.993058 362.504669 
L 666.993058 347.575609 
L 676.011639 347.575609 
L 676.011639 338.1996 
L 685.03022 338.1996 
L 685.03022 333.734835 
L 694.048801 333.734835 
L 694.048801 311.299386 
L 703.067382 311.299386 
L 703.067382 301.281568 
L 712.085963 301.281568 
L 712.085963 268.270206 
L 721.104543 268.270206 
L 721.104543 260.819628 
L 730.123124 260.819628 
L 730.123124 220.887878 
L 739.141705 220.887878 
L 739.141705 233.13808 
L 748.160286 233.13808 
L 748.160286 211.623489 
L 757.178867 211.623489 
L 757.178867 171.04993 
L 766.197448 171.04993 
L 766.197448 129.332274 
L 775.216028 129.332274 
L 775.216028 195.913094 
L 784.234609 195.913094 
L 784.234609 152.967628 
L 793.25319 152.967628 
L 793.25319 131.676276 
L 802.271771 131.676276 
L 802.271771 117.137882 
L 811.290352 117.137882 
L 811.290352 127.462653 
L 820.308933 127.462653 
L 820.308933 114.096261 
L 829.327514 114.096261 
L 829.327514 118.644741 
L 838.346094 118.644741 
L 838.346094 124.086174 
L 847.364675 124.086174 
L 847.364675 132.262277 
L 856.383256 132.262277 
L 856.383256 153.33039 
L 865.401837 153.33039 
L 865.401837 155.618583 
L 874.420418 155.618583 
L 874.420418 192.704044 
L 883.438999 192.704044 
L 883.438999 160.948397 
L 892.457579 160.948397 
L 892.457579 185.309276 
L 901.47616 185.309276 
L 901.47616 164.910877 
L 910.494741 164.910877 
L 910.494741 181.011938 
L 919.513322 181.011938 
L 919.513322 186.73242 
L 928.531903 186.73242 
L 928.531903 196.554905 
L 937.550484 196.554905 
L 937.550484 188.043945 
L 946.569065 188.043945 
L 946.569065 194.071379 
L 946.569065 194.071379 
" clip-path="url(#p427098e172)" style="fill: none; stroke: #9467bd; stroke-width: 1.4; stroke-linecap: square"/>
   </g>
   <g id="patch_3">
    <path d="M 46.965625 386.44 
L 46.965625 7.2 
" style="fill: none; stroke: #000000; stroke-width: 0.8; stroke-linejoin: miter; stroke-linecap: square"/>
   </g>
   <g id="patch_4">
    <path d="M 989.407324 386.44 
L 989.407324 7.2 
" style="fill: none; stroke: #000000; stroke-width: 0.8; stroke-linejoin: miter; stroke-linecap: square"/>
   </g>
   <g id="patch_5">
    <path d="M 46.965625 386.44 
L 989.407324 386.44 
" style="fill: none; stroke: #000000; stroke-width: 0.8; stroke-linejoin: miter; stroke-linecap: square"/>
   </g>
   <g id="patch_6">
    <path d="M 46.965625 7.2 
L 989.407324 7.2 
" style="fill: none; stroke: #000000; stroke-width: 0.8; stroke-linejoin: miter; stroke-linecap: square"/>
   </g>
   <g id="legend_1">
    <g id="patch_7">
     <path d="M 53.965625 59.234375 
L 228.951562 59.234375 
Q 230.951562 59.234375 230.951562 57.234375 
L 230.951562 14.2 
Q 230.951562 12.2 228.951562 12.2 
L 53.965625 12.2 
Q 51.965625 12.2 51.965625 14.2 
L 51.965625 57.234375 
Q 51.965625 59.234375 53.965625 59.234375 
z
" style="fill: #ffffff; opacity: 0.8; stroke: #cccccc; stroke-linejoin: miter"/>
    </g>
    <g id="line2d_32">
     <path d="M 55.965625 20.298437 
L 65.965625 20.298437 
L 65.965625 20.298437 
L 75.965625 20.298437 
L 75.965625 20.298437 
" style="fill: none; stroke: #1f77b4; stroke-width: 1.4; stroke-linecap: square"/>
    </g>
    <g id="text_16">
     <!-- DA -->
     <g transform="translate(83.965625 23.798437) scale(0.1 -0.1)">
      <defs>
       <path id="DejaVuSans-44" d="M 1259 4147 
L 1259 519 
L 2022 519 
Q 2988 519 3436 956 
Q 3884 1394 3884 2338 
Q 3884 3275 3436 3711 
Q 2988 4147 2022 4147 
L 1259 4147 
z
M 628 4666 
L 1925 4666 
Q 3281 4666 3915 4102 
Q 4550 3538 4550 2338 
Q 4550 1131 3912 565 
Q 3275 0 1925 0 
L 628 0 
L 628 4666 
z
" transform="scale(0.015625)"/>
       <path id="DejaVuSans-41" d="M 2188 4044 
L 1331 1722 
L 3047 1722 
L 2188 4044 
z
M 1831 4666 
L 2547 4666 
L 4325 0 
L 3669 0 
L 3244 1197 
L 1141 1197 
L 716 0 
L 50 0 
L 1831 4666 
z
" transform="scale(0.015625)"/>
      </defs>
      <use xlink:href="#DejaVuSans-44"/>
      <use xlink:href="#DejaVuSans-41" transform="translate(75.251953 0)"/>
     </g>
    </g>
    <g id="line2d_33">
     <path d="M 55.965625 34.976562 
L 65.965625 34.976562 
L 65.965625 34.976562 
L 75.965625 34.976562 
L 75.965625 34.976562 
" style="fill: none; stroke: #ff7f0e; stroke-width: 1.4; stroke-linecap: square"/>
    </g>
    <g id="text_17">
     <!-- IDA1 -->
     <g transform="translate(83.965625 38.476562) scale(0.1 -0.1)">
      <defs>
       <path id="DejaVuSans-49" d="M 628 4666 
L 1259 4666 
L 1259 0 
L 628 0 
L 628 4666 
z
" transform="scale(0.015625)"/>
      </defs>
      <use xlink:href="#DejaVuSans-49"/>
      <use xlink:href="#DejaVuSans-44" transform="translate(29.492188 0)"/>
      <use xlink:href="#DejaVuSans-41" transform="translate(104.744141 0)"/>
      <use xlink:href="#DejaVuSans-31" transform="translate(173.152344 0)"/>
     </g>
    </g>
    <g id="line2d_34">
     <path d="M 55.965625 49.654687 
L 65.965625 49.654687 
L 65.965625 49.654687 
L 75.965625 49.654687 
L 75.965625 49.654687 
" style="fill: none; stroke: #2ca02c; stroke-width: 1.4; stroke-linecap: square"/>
    </g>
    <g id="text_18">
     <!-- IDA2 -->
     <g transform="translate(83.965625 53.154687) scale(0.1 -0.1)">
      <use xlink:href="#DejaVuSans-49"/>
      <use xlink:href="#DejaVuSans-44" transform="translate(29.492188 0)"/>
      <use xlink:href="#DejaVuSans-41" transform="translate(104.744141 0)"/>
      <use xlink:href="#DejaVuSans-32" transform="translate(173.152344 0)"/>
     </g>
    </g>
    <g id="line2d_35">
     <path d="M 127.64375 20.298437 
L 137.64375 20.298437 
L 137.64375 20.298437 
L 147.64375 20.298437 
L 147.64375 20.298437 
" style="fill: none; stroke: #d62728; stroke-width: 1.4; stroke-linecap: square"/>
    </g>
    <g id="text_19">
     <!-- IDA3 -->
     <g transform="translate(155.64375 23.798437) scale(0.1 -0.1)">
      <defs>
       <path id="DejaVuSans-33" d="M 2597 2516 
Q 3050 2419 3304 2112 
Q 3559 1806 3559 1356 
Q 3559 666 3084 287 
Q 2609 -91 1734 -91 
Q 1441 -91 1130 -33 
Q 819 25 488 141 
L 488 750 
Q 750 597 1062 519 
Q 1375 441 1716 441 
Q 2309 441 2620 675 
Q 2931 909 2931 1356 
Q 2931 1769 2642 2001 
Q 2353 2234 1838 2234 
L 1294 2234 
L 1294 2753 
L 1863 2753 
Q 2328 2753 2575 2939 
Q 2822 3125 2822 3475 
Q 2822 3834 2567 4026 
Q 2313 4219 1838 4219 
Q 1578 4219 1281 4162 
Q 984 4106 628 3988 
L 628 4550 
Q 988 4650 1302 4700 
Q 1616 4750 1894 4750 
Q 2613 4750 3031 4423 
Q 3450 4097 3450 3541 
Q 3450 3153 3228 2886 
Q 3006 2619 2597 2516 
z
" transform="scale(0.015625)"/>
      </defs>
      <use xlink:href="#DejaVuSans-49"/>
      <use xlink:href="#DejaVuSans-44" transform="translate(29.492188 0)"/>
      <use xlink:href="#DejaVuSans-41" transform="translate(104.744141 0)"/>
      <use xlink:href="#DejaVuSans-33" transform="translate(173.152344 0)"/>
     </g>
    </g>
    <g id="line2d_36">
     <path d="M 127.64375 34.976562 
L 137.64375 34.976562 
L 137.64375 34.976562 
L 147.64375 34.976562 
L 147.64375 34.976562 
" style="fill: none; stroke: #9467bd; stroke-width: 1.4; stroke-linecap: square"/>
    </g>
    <g id="text_20">
     <!-- IDC (MedioES) -->
     <g transform="translate(155.64375 38.476562) scale(0.1 -0.1)">
      <defs>
       <path id="DejaVuSans-43" d="M 4122 4306 
L 4122 3641 
Q 3803 3938 3442 4084 
Q 3081 4231 2675 4231 
Q 1875 4231 1450 3742 
Q 1025 3253 1025 2328 
Q 1025 1406 1450 917 
Q 1875 428 2675 428 
Q 3081 428 3442 575 
Q 3803 722 4122 1019 
L 4122 359 
Q 3791 134 3420 21 
Q 3050 -91 2638 -91 
Q 1578 -91 968 557 
Q 359 1206 359 2328 
Q 359 3453 968 4101 
Q 1578 4750 2638 4750 
Q 3056 4750 3426 4639 
Q 3797 4528 4122 4306 
z
" transform="scale(0.015625)"/>
       <path id="DejaVuSans-64" d="M 2906 2969 
L 2906 4863 
L 3481 4863 
L 3481 0 
L 2906 0 
L 2906 525 
Q 2725 213 2448 61 
Q 2172 -91 1784 -91 
Q 1150 -91 751 415 
Q 353 922 353 1747 
Q 353 2572 751 3078 
Q 1150 3584 1784 3584 
Q 2172 3584 2448 3432 
Q 2725 3281 2906 2969 
z
M 947 1747 
Q 947 1113 1208 752 
Q 1469 391 1925 391 
Q 2381 391 2643 752 
Q 2906 1113 2906 1747 
Q 2906 2381 2643 2742 
Q 2381 3103 1925 3103 
Q 1469 3103 1208 2742 
Q 947 2381 947 1747 
z
" transform="scale(0.015625)"/>
       <path id="DejaVuSans-69" d="M 603 3500 
L 1178 3500 
L 1178 0 
L 603 0 
L 603 3500 
z
M 603 4863 
L 1178 4863 
L 1178 4134 
L 603 4134 
L 603 4863 
z
" transform="scale(0.015625)"/>
       <path id="DejaVuSans-45" d="M 628 4666 
L 3578 4666 
L 3578 4134 
L 1259 4134 
L 1259 2753 
L 3481 2753 
L 3481 2222 
L 1259 2222 
L 1259 531 
L 3634 531 
L 3634 0 
L 628 0 
L 628 4666 
z
" transform="scale(0.015625)"/>
       <path id="DejaVuSans-53" d="M 3425 4513 
L 3425 3897 
Q 3066 4069 2747 4153 
Q 2428 4238 2131 4238 
Q 1616 4238 1336 4038 
Q 1056 3838 1056 3469 
Q 1056 3159 1242 3001 
Q 1428 2844 1947 2747 
L 2328 2669 
Q 3034 2534 3370 2195 
Q 3706 1856 3706 1288 
Q 3706 609 3251 259 
Q 2797 -91 1919 -91 
Q 1588 -91 1214 -16 
Q 841 59 441 206 
L 441 856 
Q 825 641 1194 531 
Q 1563 422 1919 422 
Q 2459 422 2753 634 
Q 3047 847 3047 1241 
Q 3047 1584 2836 1778 
Q 2625 1972 2144 2069 
L 1759 2144 
Q 1053 2284 737 2584 
Q 422 2884 422 3419 
Q 422 4038 858 4394 
Q 1294 4750 2059 4750 
Q 2388 4750 2728 4690 
Q 3069 4631 3425 4513 
z
" transform="scale(0.015625)"/>
      </defs>
      <use xlink:href="#DejaVuSans-49"/>
      <use xlink:href="#DejaVuSans-44" transform="translate(29.492188 0)"/>
      <use xlink:href="#DejaVuSans-43" transform="translate(106.494141 0)"/>
      <use xlink:href="#DejaVuSans-20" transform="translate(176.318359 0)"/>
      <use xlink:href="#DejaVuSans-28" transform="translate(208.105469 0)"/>
      <use xlink:href="#DejaVuSans-4d" transform="translate(247.119141 0)"/>
      <use xlink:href="#DejaVuSans-65" transform="translate(333.398438 0)"/>
      <use xlink:href="#DejaVuSans-64" transform="translate(394.921875 0)"/>
      <use xlink:href="#DejaVuSans-69" transform="translate(458.398438 0)"/>
      <use xlink:href="#DejaVuSans-6f" transform="translate(486.181641 0)"/>
      <use xlink:href="#DejaVuSans-45" transform="translate(547.363281 0)"/>
      <use xlink:href="#DejaVuSans-53" transform="translate(610.546875 0)"/>
      <use xlink:href="#DejaVuSans-29" transform="translate(674.023438 0)"/>
     </g>
    </g>
   </g>
  </g>
 </g>
 <defs>
  <clipPath id="p427098e172">
   <rect x="46.965625" y="7.2" width="942.441699" height="379.24"/>
  </clipPath>
 </defs>
</svg>
